<?xml version="1.0" encoding="utf-8"?>
<svg viewBox="0 0 146 30" xmlns="http://www.w3.org/2000/svg">
  <path fill="#FFCD00" d="M 9.9 8.73 L 8.17 8.73 L 8.17 21.19 L 9.9 21.19 L 9.9 25.73 L 0.39 25.73 L 0.39 21.19 L 2.12 21.19 L 2.12 8.73 L 0.39 8.73 L 0.39 4.27 L 9.9 4.27 L 9.9 8.73 Z"/>
  <path fill="#FFCD00" d="M 22.68 25.73 L 15.79 25.73 C 13.29 25.73 11.65 24.09 11.65 21.4 L 11.65 8.59 C 11.472 6.389 13.11 4.46 15.31 4.28 C 15.47 4.27 15.63 4.27 15.79 4.28 L 22.68 4.28 C 25.18 4.28 26.81 5.95 26.81 8.6 L 26.81 21.37 C 27.013 23.571 25.391 25.519 23.19 25.72 C 23.02 25.733 22.85 25.737 22.68 25.73 Z M 20.68 21.22 L 20.68 8.73 L 17.68 8.73 L 17.68 21.19 L 20.68 21.22 Z"/>
  <path fill="#FFCD00" d="M 29.52 8.74 L 28 8.74 L 28 4.28 L 37 4.28 L 37 8.74 L 35.3 8.74 L 36.85 19.05 L 40.06 4.26 L 44.63 4.26 L 48.06 19.05 L 49.31 8.74 L 47.74 8.74 L 47.74 4.28 L 56.63 4.28 L 56.63 8.74 L 55.15 8.74 L 52.46 25.74 L 45.21 25.74 L 42.4 13.08 L 39.52 25.74 L 32.52 25.74 L 29.52 8.74 Z"/>
  <path fill="#FFCD00" d="M 55.06 21.19 L 56.69 21.19 L 59.94 4.27 L 69.66 4.27 L 72.87 21.19 L 74.39 21.19 L 74.39 25.73 L 67.13 25.73 L 66.45 20.51 L 62.84 20.51 L 62.19 25.73 L 55.06 25.73 L 55.06 21.19 Z M 66.06 16.56 L 64.67 7.91 L 63.25 16.56 L 66.06 16.56 Z"/>
  <path fill="#000000" d="M 87.592 13.269 C 87.592 13.269 86.42 13.269 86.42 13.269 C 86.42 13.269 86.42 7.582 86.42 7.582 C 86.42 7.582 87.592 7.582 87.592 7.582 C 87.592 7.582 87.592 13.269 87.592 13.269 Z M 88.427 11.117 C 88.427 10.698 88.508 10.324 88.67 9.996 C 88.831 9.668 89.064 9.414 89.367 9.234 C 89.67 9.054 90.023 8.964 90.424 8.964 C 90.994 8.964 91.459 9.139 91.82 9.488 C 92.181 9.837 92.382 10.311 92.424 10.91 C 92.424 10.91 92.431 11.199 92.431 11.199 C 92.431 11.847 92.25 12.367 91.888 12.759 C 91.526 13.151 91.041 13.347 90.431 13.347 C 89.822 13.347 89.336 13.152 88.972 12.761 C 88.609 12.371 88.427 11.839 88.427 11.168 C 88.427 11.168 88.427 11.117 88.427 11.117 Z M 89.556 11.199 C 89.556 11.6 89.632 11.906 89.783 12.119 C 89.934 12.331 90.15 12.437 90.431 12.437 C 90.705 12.437 90.918 12.332 91.072 12.123 C 91.226 11.913 91.302 11.578 91.302 11.117 C 91.302 10.724 91.226 10.419 91.072 10.203 C 90.918 9.987 90.702 9.879 90.424 9.879 C 90.148 9.879 89.934 9.986 89.783 10.201 C 89.632 10.416 89.556 10.748 89.556 11.199 Z M 96.802 11.734 C 96.802 11.734 97.357 9.043 97.357 9.043 C 97.357 9.043 98.447 9.043 98.447 9.043 C 98.447 9.043 97.369 13.269 97.369 13.269 C 97.369 13.269 96.424 13.269 96.424 13.269 C 96.424 13.269 95.623 10.609 95.623 10.609 C 95.623 10.609 94.822 13.269 94.822 13.269 C 94.822 13.269 93.881 13.269 93.881 13.269 C 93.881 13.269 92.802 9.043 92.802 9.043 C 92.802 9.043 93.892 9.043 93.892 9.043 C 93.892 9.043 94.443 11.73 94.443 11.73 C 94.443 11.73 95.217 9.043 95.217 9.043 C 95.217 9.043 96.033 9.043 96.033 9.043 C 96.033 9.043 96.802 11.734 96.802 11.734 Z M 101.455 13.269 C 101.403 13.168 101.365 13.041 101.342 12.89 C 101.068 13.195 100.713 13.347 100.275 13.347 C 99.861 13.347 99.518 13.227 99.246 12.988 C 98.974 12.748 98.838 12.446 98.838 12.082 C 98.838 11.634 99.004 11.29 99.336 11.05 C 99.668 10.811 100.148 10.69 100.775 10.687 C 100.775 10.687 101.295 10.687 101.295 10.687 C 101.295 10.687 101.295 10.445 101.295 10.445 C 101.295 10.25 101.245 10.093 101.144 9.976 C 101.044 9.859 100.886 9.8 100.67 9.8 C 100.48 9.8 100.33 9.846 100.222 9.937 C 100.114 10.028 100.06 10.153 100.06 10.312 C 100.06 10.312 98.931 10.312 98.931 10.312 C 98.931 10.067 99.007 9.841 99.158 9.632 C 99.309 9.424 99.523 9.261 99.799 9.142 C 100.075 9.024 100.385 8.964 100.728 8.964 C 101.249 8.964 101.662 9.095 101.968 9.357 C 102.274 9.619 102.427 9.987 102.427 10.461 C 102.427 10.461 102.427 12.293 102.427 12.293 C 102.43 12.694 102.486 12.997 102.595 13.203 C 102.595 13.203 102.595 13.269 102.595 13.269 C 102.595 13.269 101.455 13.269 101.455 13.269 Z M 100.521 12.484 C 100.688 12.484 100.842 12.447 100.982 12.373 C 101.123 12.298 101.227 12.199 101.295 12.074 C 101.295 12.074 101.295 11.347 101.295 11.347 C 101.295 11.347 100.873 11.347 100.873 11.347 C 100.308 11.347 100.007 11.543 99.97 11.933 C 99.97 11.933 99.967 12 99.967 12 C 99.967 12.14 100.016 12.256 100.115 12.347 C 100.214 12.438 100.349 12.484 100.521 12.484 Z M 102.361 13.269 Z M 107.357 11.187 C 107.357 11.187 106.424 11.187 106.424 11.187 C 106.424 11.187 106.424 13.269 106.424 13.269 C 106.424 13.269 105.252 13.269 105.252 13.269 C 105.252 13.269 105.252 7.582 105.252 7.582 C 105.252 7.582 107.365 7.582 107.365 7.582 C 108.037 7.582 108.555 7.731 108.92 8.031 C 109.284 8.33 109.467 8.754 109.467 9.3 C 109.467 9.688 109.383 10.012 109.215 10.271 C 109.047 10.53 108.792 10.737 108.451 10.89 C 108.451 10.89 109.681 13.214 109.681 13.214 C 109.681 13.214 109.681 13.269 109.681 13.269 C 109.681 13.269 108.424 13.269 108.424 13.269 C 108.424 13.269 107.357 11.187 107.357 11.187 Z M 106.424 10.238 C 106.424 10.238 107.369 10.238 107.369 10.238 C 107.663 10.238 107.891 10.163 108.052 10.013 C 108.214 9.864 108.295 9.657 108.295 9.394 C 108.295 9.126 108.218 8.915 108.066 8.761 C 107.914 8.608 107.68 8.531 107.365 8.531 C 107.365 8.531 106.424 8.531 106.424 8.531 C 106.424 8.531 106.424 10.238 106.424 10.238 Z M 112.033 13.347 C 111.413 13.347 110.909 13.157 110.519 12.777 C 110.13 12.397 109.935 11.89 109.935 11.257 C 109.935 11.257 109.935 11.148 109.935 11.148 C 109.935 10.724 110.017 10.344 110.181 10.009 C 110.345 9.675 110.578 9.417 110.879 9.236 C 111.179 9.055 111.523 8.964 111.908 8.964 C 112.486 8.964 112.941 9.147 113.273 9.511 C 113.605 9.876 113.771 10.393 113.771 11.062 C 113.771 11.062 113.771 11.523 113.771 11.523 C 113.771 11.523 111.08 11.523 111.08 11.523 C 111.116 11.799 111.226 12.02 111.41 12.187 C 111.593 12.354 111.826 12.437 112.107 12.437 C 112.542 12.437 112.882 12.28 113.127 11.964 C 113.127 11.964 113.681 12.586 113.681 12.586 C 113.512 12.825 113.283 13.012 112.994 13.146 C 112.705 13.28 112.385 13.347 112.033 13.347 Z M 111.904 9.879 C 111.68 9.879 111.498 9.954 111.359 10.105 C 111.22 10.256 111.131 10.472 111.092 10.754 C 111.092 10.754 112.662 10.754 112.662 10.754 C 112.662 10.754 112.662 10.664 112.662 10.664 C 112.657 10.414 112.589 10.22 112.459 10.084 C 112.329 9.947 112.144 9.879 111.904 9.879 Z M 116.861 13.269 C 116.809 13.168 116.771 13.041 116.748 12.89 C 116.474 13.195 116.119 13.347 115.681 13.347 C 115.267 13.347 114.924 13.227 114.652 12.988 C 114.38 12.748 114.244 12.446 114.244 12.082 C 114.244 11.634 114.41 11.29 114.742 11.05 C 115.074 10.811 115.554 10.69 116.181 10.687 C 116.181 10.687 116.701 10.687 116.701 10.687 C 116.701 10.687 116.701 10.445 116.701 10.445 C 116.701 10.25 116.651 10.093 116.551 9.976 C 116.45 9.859 116.292 9.8 116.076 9.8 C 115.886 9.8 115.737 9.846 115.629 9.937 C 115.521 10.028 115.467 10.153 115.467 10.312 C 115.467 10.312 114.338 10.312 114.338 10.312 C 114.338 10.067 114.413 9.841 114.564 9.632 C 114.715 9.424 114.929 9.261 115.205 9.142 C 115.481 9.024 115.791 8.964 116.135 8.964 C 116.655 8.964 117.069 9.095 117.375 9.357 C 117.681 9.619 117.834 9.987 117.834 10.461 C 117.834 10.461 117.834 12.293 117.834 12.293 C 117.836 12.694 117.892 12.997 118.002 13.203 C 118.002 13.203 118.002 13.269 118.002 13.269 C 118.002 13.269 116.861 13.269 116.861 13.269 Z M 115.927 12.484 C 116.094 12.484 116.248 12.447 116.388 12.373 C 116.529 12.298 116.633 12.199 116.701 12.074 C 116.701 12.074 116.701 11.347 116.701 11.347 C 116.701 11.347 116.279 11.347 116.279 11.347 C 115.714 11.347 115.413 11.543 115.377 11.933 C 115.377 11.933 115.373 12 115.373 12 C 115.373 12.14 115.422 12.256 115.521 12.347 C 115.62 12.438 115.756 12.484 115.927 12.484 Z M 118.416 11.125 C 118.416 10.466 118.564 9.941 118.859 9.55 C 119.155 9.16 119.559 8.964 120.072 8.964 C 120.483 8.964 120.823 9.118 121.092 9.425 C 121.092 9.425 121.092 7.269 121.092 7.269 C 121.092 7.269 122.224 7.269 122.224 7.269 C 122.224 7.269 122.224 13.269 122.224 13.269 C 122.224 13.269 121.205 13.269 121.205 13.269 C 121.205 13.269 121.15 12.82 121.15 12.82 C 120.869 13.171 120.507 13.347 120.064 13.347 C 119.567 13.347 119.168 13.151 118.867 12.759 C 118.566 12.367 118.416 11.823 118.416 11.125 Z M 119.545 11.207 C 119.545 11.602 119.614 11.906 119.752 12.117 C 119.89 12.328 120.09 12.433 120.353 12.433 C 120.702 12.433 120.948 12.286 121.092 11.992 C 121.092 11.992 121.092 10.324 121.092 10.324 C 120.951 10.03 120.707 9.882 120.361 9.882 C 119.817 9.882 119.545 10.324 119.545 11.207 Z M 124.291 13.269 C 124.291 13.269 123.158 13.269 123.158 13.269 C 123.158 13.269 123.158 9.043 123.158 9.043 C 123.158 9.043 124.291 9.043 124.291 9.043 C 124.291 9.043 124.291 13.269 124.291 13.269 Z M 123.092 7.949 C 123.092 7.78 123.148 7.64 123.261 7.531 C 123.375 7.421 123.529 7.367 123.724 7.367 C 123.917 7.367 124.071 7.421 124.185 7.531 C 124.3 7.64 124.357 7.78 124.357 7.949 C 124.357 8.121 124.299 8.261 124.183 8.371 C 124.067 8.48 123.914 8.535 123.724 8.535 C 123.534 8.535 123.381 8.48 123.265 8.371 C 123.149 8.261 123.092 8.121 123.092 7.949 Z M 126.26 9.043 C 126.26 9.043 126.295 9.531 126.295 9.531 C 126.597 9.153 127.002 8.964 127.51 8.964 C 127.957 8.964 128.291 9.096 128.51 9.359 C 128.728 9.622 128.84 10.015 128.845 10.539 C 128.845 10.539 128.845 13.269 128.845 13.269 C 128.845 13.269 127.717 13.269 127.717 13.269 C 127.717 13.269 127.717 10.566 127.717 10.566 C 127.717 10.326 127.664 10.153 127.56 10.045 C 127.456 9.936 127.283 9.882 127.041 9.882 C 126.723 9.882 126.485 10.018 126.326 10.289 C 126.326 10.289 126.326 13.269 126.326 13.269 C 126.326 13.269 125.197 13.269 125.197 13.269 C 125.197 13.269 125.197 9.043 125.197 9.043 C 125.197 9.043 126.26 9.043 126.26 9.043 Z M 129.459 11.125 C 129.459 10.476 129.613 9.954 129.922 9.558 C 130.23 9.162 130.646 8.964 131.17 8.964 C 131.633 8.964 131.994 9.123 132.252 9.441 C 132.252 9.441 132.299 9.043 132.299 9.043 C 132.299 9.043 133.322 9.043 133.322 9.043 C 133.322 9.043 133.322 13.129 133.322 13.129 C 133.322 13.498 133.238 13.82 133.07 14.093 C 132.902 14.367 132.666 14.575 132.361 14.718 C 132.056 14.862 131.7 14.933 131.291 14.933 C 130.981 14.933 130.679 14.871 130.385 14.748 C 130.09 14.624 129.868 14.464 129.717 14.269 C 129.717 14.269 130.217 13.582 130.217 13.582 C 130.498 13.897 130.839 14.054 131.24 14.054 C 131.539 14.054 131.773 13.974 131.939 13.814 C 132.106 13.654 132.189 13.427 132.189 13.132 C 132.189 13.132 132.189 12.906 132.189 12.906 C 131.929 13.2 131.586 13.347 131.162 13.347 C 130.654 13.347 130.243 13.149 129.929 12.752 C 129.616 12.354 129.459 11.828 129.459 11.171 C 129.459 11.171 129.459 11.125 129.459 11.125 Z M 130.588 11.207 C 130.588 11.589 130.664 11.89 130.818 12.107 C 130.972 12.324 131.183 12.433 131.451 12.433 C 131.795 12.433 132.041 12.304 132.189 12.046 C 132.189 12.046 132.189 10.269 132.189 10.269 C 132.038 10.011 131.795 9.882 131.459 9.882 C 131.188 9.882 130.975 9.993 130.82 10.214 C 130.665 10.436 130.588 10.767 130.588 11.207 Z"/>
  <path fill="#000000" d="M 88.451 20.681 C 88.451 20.681 87.517 20.681 87.517 20.681 C 87.517 20.681 87.517 22.763 87.517 22.763 C 87.517 22.763 86.345 22.763 86.345 22.763 C 86.345 22.763 86.345 17.076 86.345 17.076 C 86.345 17.076 88.459 17.076 88.459 17.076 C 89.131 17.076 89.649 17.226 90.013 17.525 C 90.378 17.825 90.56 18.248 90.56 18.795 C 90.56 19.183 90.476 19.506 90.308 19.765 C 90.14 20.024 89.886 20.231 89.545 20.384 C 89.545 20.384 90.775 22.709 90.775 22.709 C 90.775 22.709 90.775 22.763 90.775 22.763 C 90.775 22.763 89.517 22.763 89.517 22.763 C 89.517 22.763 88.451 20.681 88.451 20.681 Z M 87.517 19.732 C 87.517 19.732 88.463 19.732 88.463 19.732 C 88.757 19.732 88.985 19.657 89.146 19.508 C 89.308 19.358 89.388 19.151 89.388 18.888 C 89.388 18.62 89.312 18.409 89.16 18.256 C 89.008 18.102 88.774 18.025 88.459 18.025 C 88.459 18.025 87.517 18.025 87.517 18.025 C 87.517 18.025 87.517 19.732 87.517 19.732 Z M 93.127 22.842 C 92.507 22.842 92.002 22.651 91.613 22.271 C 91.224 21.891 91.029 21.384 91.029 20.752 C 91.029 20.752 91.029 20.642 91.029 20.642 C 91.029 20.218 91.111 19.838 91.275 19.504 C 91.439 19.169 91.672 18.911 91.972 18.73 C 92.273 18.549 92.616 18.459 93.002 18.459 C 93.58 18.459 94.035 18.641 94.367 19.006 C 94.699 19.37 94.865 19.887 94.865 20.556 C 94.865 20.556 94.865 21.017 94.865 21.017 C 94.865 21.017 92.174 21.017 92.174 21.017 C 92.21 21.293 92.32 21.515 92.504 21.681 C 92.687 21.848 92.92 21.931 93.201 21.931 C 93.636 21.931 93.976 21.774 94.22 21.459 C 94.22 21.459 94.775 22.08 94.775 22.08 C 94.606 22.319 94.377 22.506 94.088 22.64 C 93.799 22.774 93.478 22.842 93.127 22.842 Z M 92.998 19.373 C 92.774 19.373 92.592 19.448 92.453 19.599 C 92.314 19.75 92.224 19.967 92.185 20.248 C 92.185 20.248 93.756 20.248 93.756 20.248 C 93.756 20.248 93.756 20.158 93.756 20.158 C 93.75 19.908 93.683 19.715 93.552 19.578 C 93.422 19.441 93.237 19.373 92.998 19.373 Z M 97.795 21.595 C 97.795 21.457 97.726 21.349 97.59 21.269 C 97.453 21.19 97.233 21.119 96.931 21.056 C 95.926 20.845 95.424 20.418 95.424 19.775 C 95.424 19.4 95.579 19.087 95.89 18.836 C 96.202 18.584 96.608 18.459 97.111 18.459 C 97.648 18.459 98.077 18.585 98.398 18.838 C 98.72 19.09 98.881 19.418 98.881 19.822 C 98.881 19.822 97.752 19.822 97.752 19.822 C 97.752 19.661 97.7 19.527 97.595 19.422 C 97.491 19.316 97.329 19.263 97.107 19.263 C 96.917 19.263 96.77 19.306 96.666 19.392 C 96.562 19.478 96.51 19.588 96.51 19.72 C 96.51 19.845 96.569 19.946 96.687 20.023 C 96.806 20.1 97.006 20.166 97.287 20.222 C 97.568 20.278 97.805 20.342 97.998 20.412 C 98.594 20.631 98.892 21.009 98.892 21.549 C 98.892 21.934 98.727 22.246 98.396 22.484 C 98.065 22.722 97.638 22.842 97.115 22.842 C 96.761 22.842 96.446 22.778 96.172 22.652 C 95.897 22.526 95.681 22.353 95.525 22.133 C 95.369 21.912 95.291 21.675 95.291 21.42 C 95.291 21.42 96.361 21.42 96.361 21.42 C 96.371 21.62 96.446 21.774 96.584 21.881 C 96.722 21.987 96.907 22.041 97.138 22.041 C 97.355 22.041 97.518 22 97.629 21.918 C 97.739 21.836 97.795 21.728 97.795 21.595 Z M 101.486 22.842 C 100.866 22.842 100.362 22.651 99.972 22.271 C 99.583 21.891 99.388 21.384 99.388 20.752 C 99.388 20.752 99.388 20.642 99.388 20.642 C 99.388 20.218 99.47 19.838 99.635 19.504 C 99.799 19.169 100.031 18.911 100.332 18.73 C 100.633 18.549 100.976 18.459 101.361 18.459 C 101.939 18.459 102.394 18.641 102.726 19.006 C 103.058 19.37 103.224 19.887 103.224 20.556 C 103.224 20.556 103.224 21.017 103.224 21.017 C 103.224 21.017 100.533 21.017 100.533 21.017 C 100.569 21.293 100.679 21.515 100.863 21.681 C 101.047 21.848 101.279 21.931 101.56 21.931 C 101.995 21.931 102.335 21.774 102.58 21.459 C 102.58 21.459 103.135 22.08 103.135 22.08 C 102.965 22.319 102.736 22.506 102.447 22.64 C 102.158 22.774 101.838 22.842 101.486 22.842 Z M 101.357 19.373 C 101.133 19.373 100.952 19.448 100.812 19.599 C 100.673 19.75 100.584 19.967 100.545 20.248 C 100.545 20.248 102.115 20.248 102.115 20.248 C 102.115 20.248 102.115 20.158 102.115 20.158 C 102.11 19.908 102.042 19.715 101.912 19.578 C 101.782 19.441 101.597 19.373 101.357 19.373 Z M 106.314 22.763 C 106.262 22.662 106.224 22.536 106.201 22.384 C 105.927 22.689 105.572 22.842 105.135 22.842 C 104.72 22.842 104.377 22.722 104.105 22.482 C 103.833 22.243 103.697 21.94 103.697 21.576 C 103.697 21.128 103.863 20.784 104.195 20.545 C 104.527 20.305 105.007 20.184 105.635 20.181 C 105.635 20.181 106.154 20.181 106.154 20.181 C 106.154 20.181 106.154 19.939 106.154 19.939 C 106.154 19.744 106.104 19.588 106.004 19.47 C 105.903 19.353 105.745 19.295 105.529 19.295 C 105.339 19.295 105.19 19.34 105.082 19.431 C 104.974 19.522 104.92 19.647 104.92 19.806 C 104.92 19.806 103.791 19.806 103.791 19.806 C 103.791 19.562 103.866 19.335 104.017 19.127 C 104.168 18.918 104.382 18.755 104.658 18.636 C 104.934 18.518 105.244 18.459 105.588 18.459 C 106.108 18.459 106.522 18.59 106.828 18.851 C 107.134 19.113 107.287 19.481 107.287 19.955 C 107.287 19.955 107.287 21.787 107.287 21.787 C 107.289 22.188 107.345 22.491 107.455 22.697 C 107.455 22.697 107.455 22.763 107.455 22.763 C 107.455 22.763 106.314 22.763 106.314 22.763 Z M 105.381 21.978 C 105.547 21.978 105.701 21.941 105.842 21.867 C 105.982 21.793 106.086 21.693 106.154 21.568 C 106.154 21.568 106.154 20.842 106.154 20.842 C 106.154 20.842 105.732 20.842 105.732 20.842 C 105.167 20.842 104.866 21.037 104.83 21.427 C 104.83 21.427 104.826 21.494 104.826 21.494 C 104.826 21.634 104.875 21.75 104.974 21.842 C 105.073 21.933 105.209 21.978 105.381 21.978 Z M 110.537 19.595 C 110.383 19.575 110.248 19.564 110.131 19.564 C 109.704 19.564 109.424 19.709 109.291 19.998 C 109.291 19.998 109.291 22.763 109.291 22.763 C 109.291 22.763 108.162 22.763 108.162 22.763 C 108.162 22.763 108.162 18.537 108.162 18.537 C 108.162 18.537 109.228 18.537 109.228 18.537 C 109.228 18.537 109.26 19.041 109.26 19.041 C 109.486 18.653 109.8 18.459 110.201 18.459 C 110.326 18.459 110.443 18.476 110.552 18.509 C 110.552 18.509 110.537 19.595 110.537 19.595 Z M 112.822 21.931 C 113.03 21.931 113.2 21.874 113.33 21.759 C 113.46 21.645 113.528 21.493 113.533 21.302 C 113.533 21.302 114.592 21.302 114.592 21.302 C 114.589 21.589 114.511 21.851 114.357 22.09 C 114.204 22.328 113.993 22.513 113.726 22.644 C 113.459 22.776 113.164 22.842 112.842 22.842 C 112.237 22.842 111.761 22.649 111.412 22.265 C 111.063 21.881 110.888 21.351 110.888 20.674 C 110.888 20.674 110.888 20.599 110.888 20.599 C 110.888 19.948 111.062 19.429 111.408 19.041 C 111.754 18.653 112.23 18.459 112.834 18.459 C 113.362 18.459 113.786 18.609 114.105 18.91 C 114.424 19.211 114.586 19.611 114.592 20.111 C 114.592 20.111 113.533 20.111 113.533 20.111 C 113.528 19.892 113.46 19.715 113.33 19.578 C 113.2 19.441 113.028 19.373 112.814 19.373 C 112.551 19.373 112.353 19.468 112.218 19.66 C 112.084 19.851 112.017 20.162 112.017 20.592 C 112.017 20.592 112.017 20.709 112.017 20.709 C 112.017 21.144 112.084 21.456 112.217 21.646 C 112.349 21.836 112.551 21.931 112.822 21.931 Z M 116.338 18.998 C 116.637 18.638 117.013 18.459 117.467 18.459 C 118.383 18.459 118.848 18.991 118.861 20.056 C 118.861 20.056 118.861 22.763 118.861 22.763 C 118.861 22.763 117.732 22.763 117.732 22.763 C 117.732 22.763 117.732 20.088 117.732 20.088 C 117.732 19.845 117.68 19.666 117.576 19.55 C 117.472 19.435 117.299 19.377 117.056 19.377 C 116.726 19.377 116.486 19.504 116.338 19.759 C 116.338 19.759 116.338 22.763 116.338 22.763 C 116.338 22.763 115.209 22.763 115.209 22.763 C 115.209 22.763 115.209 16.763 115.209 16.763 C 115.209 16.763 116.338 16.763 116.338 16.763 C 116.338 16.763 116.338 18.998 116.338 18.998 Z M 118.888 22.763 Z M 126.244 20.869 C 126.2 21.481 125.974 21.963 125.566 22.314 C 125.159 22.666 124.621 22.842 123.955 22.842 C 123.226 22.842 122.652 22.596 122.234 22.105 C 121.816 21.614 121.607 20.94 121.607 20.084 C 121.607 20.084 121.607 19.736 121.607 19.736 C 121.607 19.189 121.704 18.707 121.896 18.291 C 122.089 17.874 122.364 17.554 122.722 17.332 C 123.08 17.109 123.496 16.998 123.97 16.998 C 124.627 16.998 125.155 17.174 125.556 17.525 C 125.957 17.877 126.189 18.37 126.252 19.006 C 126.252 19.006 125.08 19.006 125.08 19.006 C 125.051 18.638 124.949 18.372 124.773 18.207 C 124.597 18.041 124.33 17.959 123.97 17.959 C 123.58 17.959 123.287 18.099 123.093 18.379 C 122.899 18.659 122.8 19.093 122.795 19.681 C 122.795 19.681 122.795 20.111 122.795 20.111 C 122.795 20.726 122.888 21.175 123.074 21.459 C 123.26 21.743 123.554 21.884 123.955 21.884 C 124.317 21.884 124.587 21.802 124.765 21.636 C 124.944 21.471 125.046 21.215 125.072 20.869 C 125.072 20.869 126.244 20.869 126.244 20.869 Z M 128.885 22.842 C 128.265 22.842 127.76 22.651 127.371 22.271 C 126.982 21.891 126.787 21.384 126.787 20.752 C 126.787 20.752 126.787 20.642 126.787 20.642 C 126.787 20.218 126.869 19.838 127.033 19.504 C 127.197 19.169 127.429 18.911 127.73 18.73 C 128.031 18.549 128.374 18.459 128.76 18.459 C 129.338 18.459 129.793 18.641 130.125 19.006 C 130.457 19.37 130.623 19.887 130.623 20.556 C 130.623 20.556 130.623 21.017 130.623 21.017 C 130.623 21.017 127.931 21.017 127.931 21.017 C 127.968 21.293 128.078 21.515 128.261 21.681 C 128.445 21.848 128.677 21.931 128.959 21.931 C 129.394 21.931 129.733 21.774 129.978 21.459 C 129.978 21.459 130.533 22.08 130.533 22.08 C 130.364 22.319 130.135 22.506 129.845 22.64 C 129.556 22.774 129.236 22.842 128.885 22.842 Z M 128.756 19.373 C 128.532 19.373 128.35 19.448 128.211 19.599 C 128.071 19.75 127.982 19.967 127.943 20.248 C 127.943 20.248 129.513 20.248 129.513 20.248 C 129.513 20.248 129.513 20.158 129.513 20.158 C 129.508 19.908 129.44 19.715 129.31 19.578 C 129.18 19.441 128.995 19.373 128.756 19.373 Z M 132.302 18.537 C 132.302 18.537 132.338 19.025 132.338 19.025 C 132.64 18.647 133.045 18.459 133.552 18.459 C 134 18.459 134.334 18.59 134.552 18.853 C 134.771 19.116 134.883 19.509 134.888 20.033 C 134.888 20.033 134.888 22.763 134.888 22.763 C 134.888 22.763 133.76 22.763 133.76 22.763 C 133.76 22.763 133.76 20.06 133.76 20.06 C 133.76 19.821 133.707 19.647 133.603 19.539 C 133.499 19.431 133.326 19.377 133.084 19.377 C 132.766 19.377 132.528 19.512 132.369 19.783 C 132.369 19.783 132.369 22.763 132.369 22.763 C 132.369 22.763 131.24 22.763 131.24 22.763 C 131.24 22.763 131.24 18.537 131.24 18.537 C 131.24 18.537 132.302 18.537 132.302 18.537 Z M 137.095 17.498 C 137.095 17.498 137.095 18.537 137.095 18.537 C 137.095 18.537 137.818 18.537 137.818 18.537 C 137.818 18.537 137.818 19.365 137.818 19.365 C 137.818 19.365 137.095 19.365 137.095 19.365 C 137.095 19.365 137.095 21.474 137.095 21.474 C 137.095 21.631 137.125 21.743 137.185 21.81 C 137.245 21.878 137.36 21.912 137.529 21.912 C 137.654 21.912 137.765 21.903 137.861 21.884 C 137.861 21.884 137.861 22.74 137.861 22.74 C 137.64 22.808 137.412 22.842 137.177 22.842 C 136.386 22.842 135.982 22.442 135.967 21.642 C 135.967 21.642 135.967 19.365 135.967 19.365 C 135.967 19.365 135.349 19.365 135.349 19.365 C 135.349 19.365 135.349 18.537 135.349 18.537 C 135.349 18.537 135.967 18.537 135.967 18.537 C 135.967 18.537 135.967 17.498 135.967 17.498 C 135.967 17.498 137.095 17.498 137.095 17.498 Z M 140.392 22.842 C 139.773 22.842 139.268 22.651 138.879 22.271 C 138.489 21.891 138.295 21.384 138.295 20.752 C 138.295 20.752 138.295 20.642 138.295 20.642 C 138.295 20.218 138.377 19.838 138.541 19.504 C 138.705 19.169 138.937 18.911 139.238 18.73 C 139.539 18.549 139.882 18.459 140.267 18.459 C 140.845 18.459 141.301 18.641 141.633 19.006 C 141.965 19.37 142.131 19.887 142.131 20.556 C 142.131 20.556 142.131 21.017 142.131 21.017 C 142.131 21.017 139.439 21.017 139.439 21.017 C 139.476 21.293 139.586 21.515 139.769 21.681 C 139.953 21.848 140.185 21.931 140.467 21.931 C 140.901 21.931 141.241 21.774 141.486 21.459 C 141.486 21.459 142.041 22.08 142.041 22.08 C 141.871 22.319 141.642 22.506 141.353 22.64 C 141.064 22.774 140.744 22.842 140.392 22.842 Z M 140.263 19.373 C 140.039 19.373 139.858 19.448 139.718 19.599 C 139.579 19.75 139.49 19.967 139.451 20.248 C 139.451 20.248 141.021 20.248 141.021 20.248 C 141.021 20.248 141.021 20.158 141.021 20.158 C 141.016 19.908 140.948 19.715 140.818 19.578 C 140.688 19.441 140.503 19.373 140.263 19.373 Z M 145.146 19.595 C 144.993 19.575 144.857 19.564 144.74 19.564 C 144.313 19.564 144.033 19.709 143.9 19.998 C 143.9 19.998 143.9 22.763 143.9 22.763 C 143.9 22.763 142.771 22.763 142.771 22.763 C 142.771 22.763 142.771 18.537 142.771 18.537 C 142.771 18.537 143.838 18.537 143.838 18.537 C 143.838 18.537 143.869 19.041 143.869 19.041 C 144.095 18.653 144.409 18.459 144.81 18.459 C 144.935 18.459 145.052 18.476 145.162 18.509 C 145.162 18.509 145.146 19.595 145.146 19.595 Z"/>
  <rect x="79.625" y="0.267" width="0.733" height="29.48" style="fill:#000000"/>
</svg>